<svg id="Image" height="512" viewBox="0 0 64 64" width="512" xmlns="http://www.w3.org/2000/svg"><g><circle cx="25" cy="25" r="1.5"/><path d="m56 23.539v-4.539c0-.553-.447-1-1-1h-2v-4h1c1.324 0 1.323-2 0-2h-13c-1.324 0-1.323 2 0 2h6v4h-2c-.553 0-1 .447-1 1v4.539c-2.506 2.077-4 5.192-4 8.461v8h-6v-5.17c0-1.915-.729-3.787-2-5.213v-11.617c0-.553-.447-1-1-1h-1.875l.153-2.091.719-9.836c.043-.581-.417-1.073-.997-1.073h-24c-.58 0-1.04.493-.997 1.073l.287 3.926v.001.002l2.71 37.031v5.967c0 .553.447 1 1 1h8v1c0 1.654 1.346 3 3 3h6c0 1.654 1.346 3 3 3h20c1.654 0 3-1.346 3-3h6c1.654 0 3-1.346 3-3v-22c0-3.268-1.494-6.384-4-8.461zm-7-9.539h2v4h-2zm-3 6h8v3h-8zm3 26h-22v-4h22zm-19-17h-1v-8c0-.553-.447-1-1-1h-6c-.553 0-1 .447-1 1v8h-1v-10h10zm-7 0v-7h4v7zm-4-12c-.553 0-1 .447-1 1v11.617c-1.271 1.426-2 3.298-2 5.213v10.17h-7.071l-2.56-35h21.263l-.348 4.763-.163 2.237zm8.924-11-.146 2h-21.556l-.146-2zm-18.924 45v-4h7v4zm10 4c-.552 0-1-.448-1-1v-19.17c0-1.402.524-2.775 1.442-3.83h11.115c.919 1.056 1.443 2.428 1.443 3.83v5.17h-6c-.553 0-1 .447-1 1v14zm30 2c0 .552-.448 1-1 1h-20c-.552 0-1-.448-1-1v-9h22zm9-3c0 .552-.448 1-1 1h-6v-14c0-.553-.447-1-1-1h-8v-8c0-2.714 1.258-5.302 3.363-7h9.273c2.107 1.698 3.364 4.286 3.364 7z"/></g></svg>